# xmcd
#
# Track frame offsets: 
#        150
#        9726
#        24863
#        35031
#        51709
#        68671
#        87563
#        102336
#        128583
#        140727
#        153861
#        169646
#        181881
#        196017
#        209994
#        217681
#        228340
#        243797
#        259694
#
# Disc length: 3749 seconds
#
# Revision: 2
# Processed by: cddbd v1.5.2PL0 Copyright (c) Steve Scherf et al.
# Submitted via: ExactAudioCopyFreeDBPlugin 1.0
#
DISCID=050ea313
DTITLE=Chuck Berry - Rock and Roll Music:  Any Old Way You Choose It [
DTITLE=Bear Family box set]
DYEAR=2014
DGENRE=Rock and Roll
TTITLE0=Maybeline [sic] (live at Camel Rock 'n' Roll Dance Party May-J
TTITLE0=une 1956)
TTITLE1=Roll Over Beethoven (live at Camel Rock 'n' Roll Dance Party M
TTITLE1=ay-June 1956)
TTITLE2=Introduction (live at Newport Jazz Festival, 07-05-1958)
TTITLE3=Schooldays (School Day) (live at Newport Jazz Festival, 07-05-
TTITLE3=1958)
TTITLE4=No Money Down (live at Newport Jazz Festival, 07-05-1958)
TTITLE5=Sweet Little Sixteen (live at Newport Jazz Festival, 07-05-195
TTITLE5=8)
TTITLE6=Johnny B. Goode (live at Newport Jazz Festival, 07-05-1958)
TTITLE7=First Set Introduction (live at Walled Lake Casino, Detroit, 1
TTITLE7=0-25-1963)
TTITLE8=Guitar Boogie (instrumental) (live at Walled Lake Casino, Detr
TTITLE8=oit, 10-25-1963)
TTITLE9=Johnny B. Goode (live at Walled Lake Casino, Detroit, 10-25-19
TTITLE9=63)
TTITLE10=Sweet Little Sixteen (live at Walled Lake Casino, Detroit, 10
TTITLE10=25-1963)
TTITLE11=School Day (live at Walled Lake Casino, Detroit, 10-25-1963)
TTITLE12=Memphis (live at Walled Lake Casino, Detroit, 10-25-1963)
TTITLE13=Maybellene (live at Walled Lake Casino, Detroit, 10-25-1963)
TTITLE14=Rock and Roll Music (live at Walled Lake Casino, Detroit, 10-
TTITLE14=25-1963)
TTITLE15=Dust My Broom (live at Walled Lake Casino, Detroit, 10-25-196
TTITLE15=3)
TTITLE16=Instrumental Boogie (live at Walled Lake Casino, Detroit, 10-
TTITLE16=25-1963)
TTITLE17=Too Much Monkey Business (live at Walled Lake Casino, Detroit
TTITLE17=, 10-25-1963)
TTITLE18=Johnny B. Goode (live at Walled Lake Casino, Detroit, 10-25-1
TTITLE18=963)
EXTD=
EXTT0=
EXTT1=
EXTT2=
EXTT3=
EXTT4=
EXTT5=
EXTT6=
EXTT7=
EXTT8=
EXTT9=
EXTT10=
EXTT11=
EXTT12=
EXTT13=
EXTT14=
EXTT15=
EXTT16=
EXTT17=
EXTT18=
PLAYORDER=
